<?xml version="1.0" encoding="UTF-8" standalone="no"?>
<svg
   xmlns:dc="http://purl.org/dc/elements/1.1/"
   xmlns:cc="http://creativecommons.org/ns#"
   xmlns:rdf="http://www.w3.org/1999/02/22-rdf-syntax-ns#"
   xmlns:svg="http://www.w3.org/2000/svg"
   xmlns="http://www.w3.org/2000/svg"
   xmlns:sodipodi="http://sodipodi.sourceforge.net/DTD/sodipodi-0.dtd"
   xmlns:inkscape="http://www.inkscape.org/namespaces/inkscape"
   width="289"
   height="289"
   viewBox="0 0 289 289"
   fill="none"
   version="1.1"
   id="svg110"
   sodipodi:docname="teletype.svg"
   inkscape:version="1.0.1 (3bc2e813f5, 2020-09-07)">
  <metadata
     id="metadata114">
    <rdf:RDF>
      <cc:Work
         rdf:about="">
        <dc:format>image/svg+xml</dc:format>
        <dc:type
           rdf:resource="http://purl.org/dc/dcmitype/StillImage" />
        <dc:title></dc:title>
      </cc:Work>
    </rdf:RDF>
  </metadata>
  <sodipodi:namedview
     pagecolor="#ffffff"
     bordercolor="#666666"
     borderopacity="1"
     objecttolerance="10"
     gridtolerance="10"
     guidetolerance="10"
     inkscape:pageopacity="0"
     inkscape:pageshadow="2"
     inkscape:window-width="2045"
     inkscape:window-height="1086"
     id="namedview112"
     showgrid="true"
     inkscape:snap-grids="false"
     inkscape:snap-global="true"
     inkscape:zoom="0.84866275"
     inkscape:cx="687.5"
     inkscape:cy="143"
     inkscape:window-x="0"
     inkscape:window-y="0"
     inkscape:window-maximized="0"
     inkscape:current-layer="svg110"
     fit-margin-top="0"
     fit-margin-left="0"
     fit-margin-right="0"
     fit-margin-bottom="0">
    <inkscape:grid
       type="xygrid"
       id="grid116"
       originx="-79"
       originy="-32" />
  </sodipodi:namedview>
  <g
     clip-path="url(#clip0_512_1393)"
     id="g98"
     transform="translate(-76.643351,-29.643351)">
    <path
       d="M 365,175 C 365,96.0233 300.977,32 222,32 143.023,32 79,96.0233 79,175 c 0,78.977 64.023,143 143,143 78.977,0 143,-64.023 143,-143 z"
       fill="#0079ff"
       id="path94" />
    <path
       d="m 222,84.4333 c 50.018,0 90.567,40.5077 90.567,90.4777 0,49.971 -40.548,90.479 -90.567,90.479 -9.03,0 -17.748,-1.326 -25.978,-3.784 l -30.837,18.261 v -34.498 c -20.582,-16.586 -33.752,-41.983 -33.752,-70.457 0,-49.97 40.548,-90.4787 90.567,-90.4787 z m 43.842,105.0907 c -2.795,-0.856 -5.737,0.82 -6.561,3.641 -4.807,16.673 -20.135,28.318 -37.28,28.318 -17.146,0 -32.486,-11.646 -37.287,-28.318 -0.818,-2.821 -3.724,-4.496 -6.566,-3.641 -2.813,0.832 -4.419,3.81 -3.602,6.643 6.108,21.205 25.631,36.033 47.454,36.033 21.824,0 41.335,-14.828 47.455,-36.033 0.817,-2.833 -0.801,-5.811 -3.613,-6.643 z"
       fill="url(#paint0_linear_512_1393)"
       id="path96"
       style="fill:url(#paint0_linear_512_1393)" />
  </g>
  <defs
     id="defs108">
    <linearGradient
       id="paint0_linear_512_1393"
       x1="159.451"
       y1="117.327"
       x2="292.509"
       y2="223.659"
       gradientUnits="userSpaceOnUse">
      <stop
         stop-color="white"
         id="stop100" />
      <stop
         offset="1"
         stop-color="#E8F3FF"
         id="stop102" />
    </linearGradient>
    <clipPath
       id="clip0_512_1393">
      <rect
         width="286"
         height="286"
         fill="#ffffff"
         transform="translate(79,32)"
         id="rect105"
         x="0"
         y="0" />
    </clipPath>
  </defs>
</svg>
